<svg id="svg" version="1.1" xmlns="http://www.w3.org/2000/svg" xmlns:xlink="http://www.w3.org/1999/xlink" width="400" height="400" viewBox="0, 0, 400,400">
    <g id="svgg">
        <path id="path0" d="M125.200 87.600 L 125.200 150.000 150.000 150.000 L 174.800 150.000 174.800 125.000 L 174.800 100.000 187.400 100.000 L 200.000 100.000 200.000 112.394 L 200.000 124.789 212.500 124.894 L 225.000 125.000 225.106 137.500 L 225.211 150.000 250.006 150.000 L 274.800 150.000 274.800 87.600 L 274.800 25.200 250.003 25.200 L 225.206 25.200 225.103 50.100 L 225.000 75.000 212.506 75.106 L 200.011 75.211 199.906 62.706 L 199.800 50.200 187.300 50.094 L 174.800 49.989 174.800 37.594 L 174.800 25.200 150.000 25.200 L 125.200 25.200 125.200 87.600 M125.200 312.601 L 125.200 375.203 187.500 375.101 L 249.800 375.000 249.906 362.506 L 250.011 350.011 262.506 349.906 L 275.000 349.800 275.000 312.400 L 275.000 275.000 262.500 274.894 L 250.000 274.789 250.000 262.394 L 250.000 250.000 187.600 250.000 L 125.200 250.000 125.200 312.601 M250.000 287.600 L 250.000 300.000 212.600 300.000 L 175.200 300.000 175.200 287.600 L 175.200 275.200 212.600 275.200 L 250.000 275.200 250.000 287.600 M250.000 337.600 L 250.000 350.000 212.600 350.000 L 175.200 350.000 175.200 337.600 L 175.200 325.200 212.600 325.200 L 250.000 325.200 250.000 337.600 " stroke="none" fill="#fcfcfc" fill-rule="evenodd"></path>
        <path id="path1" d="M124.986 25.297 C 124.881 25.574,124.841 53.790,124.899 88.000 L 125.003 150.200 125.101 87.700 L 125.200 25.200 149.994 25.200 L 174.789 25.200 174.903 37.600 L 175.017 50.000 175.009 37.500 L 175.000 25.000 150.089 24.897 C 130.372 24.815,125.137 24.899,124.986 25.297 M225.070 25.064 C 224.921 25.212,224.800 36.461,224.800 50.061 L 224.800 74.789 212.400 74.903 L 200.000 75.017 212.500 75.009 L 225.000 75.000 225.103 50.100 L 225.206 25.200 250.002 25.200 L 274.798 25.200 274.901 87.600 L 275.004 150.000 275.002 87.500 L 275.000 25.000 250.170 24.897 C 236.513 24.840,225.218 24.915,225.070 25.064 M174.988 125.000 C 174.988 138.860,175.039 144.472,175.100 137.471 C 175.161 130.470,175.161 119.130,175.100 112.271 C 175.038 105.412,174.988 111.140,174.988 125.000 M212.394 125.097 L 224.789 125.211 224.903 137.606 L 225.017 150.000 225.009 137.500 L 225.000 125.000 212.500 124.991 L 200.000 124.983 212.394 125.097 M0.000 300.000 L 0.000 400.000 200.000 400.000 L 400.000 400.000 400.000 300.000 L 400.000 200.000 200.000 200.000 L 0.000 200.000 0.000 300.000 M250.000 262.394 L 250.000 274.789 262.500 274.894 L 275.000 275.000 275.000 312.400 L 275.000 349.800 262.506 349.906 L 250.011 350.011 249.906 362.506 L 249.800 375.000 187.500 375.101 L 125.200 375.203 125.200 312.601 L 125.200 250.000 187.600 250.000 L 250.000 250.000 250.000 262.394 M175.200 287.600 L 175.200 300.000 212.600 300.000 L 250.000 300.000 250.000 287.600 L 250.000 275.200 212.600 275.200 L 175.200 275.200 175.200 287.600 M175.200 337.600 L 175.200 350.000 212.600 350.000 L 250.000 350.000 250.000 337.600 L 250.000 325.200 212.600 325.200 L 175.200 325.200 175.200 337.600 " stroke="none" fill="#4cac6c" fill-rule="evenodd"></path>
        <path id="path2" d="M0.000 100.000 L 0.000 200.000 200.000 200.000 L 400.000 200.000 400.000 100.000 L 400.000 0.000 200.000 0.000 L 0.000 0.000 0.000 100.000 M175.106 37.500 L 175.211 50.000 187.606 50.000 L 200.000 50.000 200.000 62.400 L 200.000 74.800 212.397 74.800 L 224.794 74.800 224.897 49.900 L 225.000 25.000 250.000 25.000 L 275.000 25.000 275.101 87.500 L 275.202 150.000 250.001 150.000 L 224.800 150.000 224.800 137.600 L 224.800 125.200 212.406 125.200 L 200.011 125.200 199.906 112.700 L 199.800 100.200 187.500 100.094 L 175.200 99.988 175.200 124.994 L 175.200 150.000 150.000 150.000 L 124.800 150.000 124.800 87.667 C 124.800 53.383,124.921 25.212,125.070 25.064 C 125.218 24.915,136.513 24.840,150.170 24.897 L 175.000 25.000 175.106 37.500 " stroke="none" fill="#040404" fill-rule="evenodd"></path>
    </g>
</svg>